<svg id="Layer_1" data-name="Layer 1" xmlns="http://www.w3.org/2000/svg" viewBox="0 0 1000 1000"><defs><style>.cls-1{fill:#177dbc;}.cls-2{fill:#0a3963;}.cls-3{fill:#14efca;}</style></defs><title>aigensea</title><path class="cls-1" d="M609.8,187.24V573.51a247.25,247.25,0,0,1-156,55.11c-137.09,0-248.26-111.13-248.26-248.23S316.75,132.13,453.84,132.13A247.25,247.25,0,0,1,609.8,187.24Z"/><path class="cls-2" d="M794.42,132.13V628.62H609.8V573.51a248.2,248.2,0,0,0,0-386.27V132.13Z"/><path class="cls-2" d="M166.2,737.5H197v86.75H166.2v-9.64Q156.39,827,139.66,827a43.1,43.1,0,0,1-17.42-3.46,41.92,41.92,0,0,1-13.87-9.73,44.61,44.61,0,0,1-9.21-14.71,50.23,50.23,0,0,1-3.3-18.43A48.92,48.92,0,0,1,99.07,763a45.45,45.45,0,0,1,9-14.63,42.28,42.28,0,0,1,13.7-9.89,41.69,41.69,0,0,1,17.59-3.64q16.23,0,26.88,11.33Zm-38.55,43.12a20.23,20.23,0,0,0,5.66,14.2,18.52,18.52,0,0,0,6.26,4.23,20.06,20.06,0,0,0,7.86,1.52,19.66,19.66,0,0,0,7.7-1.52,18.38,18.38,0,0,0,6.25-4.23,21.81,21.81,0,0,0,4.23-6.25,18.29,18.29,0,0,0,1.61-7.61,18.88,18.88,0,0,0-1.61-7.7,21.58,21.58,0,0,0-4.23-6.34,18.5,18.5,0,0,0-6.25-4.22,19.67,19.67,0,0,0-7.7-1.53,20.06,20.06,0,0,0-7.86,1.53,18.64,18.64,0,0,0-6.26,4.22,21.16,21.16,0,0,0-4.14,6.17A18.63,18.63,0,0,0,127.65,780.62Z"/><path class="cls-2" d="M215.75,704.19a16.69,16.69,0,0,1,1.35-6.68,17.51,17.51,0,0,1,9.22-9.22,17.2,17.2,0,0,1,13.36,0,17.87,17.87,0,0,1,5.5,3.72,17.61,17.61,0,0,1,3.71,5.5,17.09,17.09,0,0,1,0,13.36,17.48,17.48,0,0,1-9.21,9.21,17.2,17.2,0,0,1-13.36,0,17.54,17.54,0,0,1-9.22-9.21A16.72,16.72,0,0,1,215.75,704.19Zm32.64,33.31v86.75H217.78V737.5Z"/><path class="cls-2" d="M366.42,737.5v80.83a90.59,90.59,0,0,1-.85,13,56.16,56.16,0,0,1-2.37,10.14,31.78,31.78,0,0,1-6.34,10.41,42.39,42.39,0,0,1-10.4,8.36,55.28,55.28,0,0,1-13.78,5.59,65.29,65.29,0,0,1-16.66,2,64.6,64.6,0,0,1-18.6-2.53,50.38,50.38,0,0,1-14.79-7,40.75,40.75,0,0,1-10.4-10.48,34.72,34.72,0,0,1-5.41-13.11h34.49q3.21,8.63,14.54,8.63,9.64,0,14.8-5.42t5.16-15v-8.29a51.26,51.26,0,0,1-6.51,5.32A36.06,36.06,0,0,1,323,823.4a30.42,30.42,0,0,1-6.76,2,47.86,47.86,0,0,1-7.77.59,44.2,44.2,0,0,1-17.09-3.22A39.44,39.44,0,0,1,269.1,800,48.67,48.67,0,0,1,266,782.14a49.89,49.89,0,0,1,3.38-18.51,47.39,47.39,0,0,1,9.22-14.88,42.31,42.31,0,0,1,13.86-10,41.87,41.87,0,0,1,17.5-3.64,33.66,33.66,0,0,1,25.88,11.5V737.5Zm-68.66,43a20.18,20.18,0,0,0,5.67,14.2,18.38,18.38,0,0,0,6.25,4.23,20.09,20.09,0,0,0,7.86,1.52,19.63,19.63,0,0,0,7.7-1.52,18.52,18.52,0,0,0,6.26-4.23,21.49,21.49,0,0,0,4.22-6.34,19.39,19.39,0,0,0,0-15.47,21,21,0,0,0-4.31-6.25,19.79,19.79,0,0,0-13.87-5.75,18.29,18.29,0,0,0-7.61,1.6,21.81,21.81,0,0,0-6.25,4.23,19.81,19.81,0,0,0-4.31,6.17A18.29,18.29,0,0,0,297.76,780.45Z"/><path class="cls-2" d="M416.8,786q0,19.79,18.61,19.79,10,0,15-8.12h29.6q-9,29.76-44.82,29.76a58.85,58.85,0,0,1-20.12-3.3,44.82,44.82,0,0,1-15.64-9.38,41.93,41.93,0,0,1-10.06-14.54,48.44,48.44,0,0,1-3.55-18.94,53.42,53.42,0,0,1,3.38-19.53,41,41,0,0,1,9.64-14.8A42.6,42.6,0,0,1,414,737.59a57.22,57.22,0,0,1,20-3.31,56,56,0,0,1,19.79,3.31,40,40,0,0,1,14.88,9.55,41.59,41.59,0,0,1,9.3,15.3,60.7,60.7,0,0,1,3.21,20.38V786Zm35.85-17.76A18.36,18.36,0,0,0,446.39,758a17.52,17.52,0,0,0-11.49-3.89q-7.11,0-11.58,3.72a16.85,16.85,0,0,0-5.67,10.48Z"/><path class="cls-2" d="M498.65,737.5h30.6v11q6.25-7.61,12.69-10.23a39.61,39.61,0,0,1,15-2.62,37.66,37.66,0,0,1,15.64,3A31.17,31.17,0,0,1,583.7,747a24.15,24.15,0,0,1,5.08,9.81,51.17,51.17,0,0,1,1.35,12.34v55.13H559.52v-43.8a47.19,47.19,0,0,0-.93-10.4,12.87,12.87,0,0,0-3.3-6.34,11.54,11.54,0,0,0-4.56-2.87,16.85,16.85,0,0,0-5.41-.85q-7.79,0-11.92,4.65t-4.15,13.27v46.34h-30.6Z"/><path class="cls-2" d="M668.42,759.82a35.79,35.79,0,0,0-16.57-4.4,12.5,12.5,0,0,0-6.85,1.69,5.2,5.2,0,0,0-2.62,4.57,6,6,0,0,0,.42,2.45,4.27,4.27,0,0,0,1.86,1.78,15.79,15.79,0,0,0,4.23,1.52c1.86.45,4.31,1,7.35,1.69q12.69,2.53,18.94,9t6.26,16.65a30.19,30.19,0,0,1-3,13.7,29.09,29.09,0,0,1-8.46,10.23,40.24,40.24,0,0,1-13,6.43,58.12,58.12,0,0,1-16.74,2.28q-17.59,0-34.67-10l11.17-21.64q12.84,8.79,24.34,8.79a12,12,0,0,0,6.94-1.86,5.55,5.55,0,0,0,2.7-4.73,7.88,7.88,0,0,0-.42-2.79,4.46,4.46,0,0,0-1.78-2,14.14,14.14,0,0,0-4-1.69c-1.75-.51-4-1-6.85-1.61q-14.21-2.86-19.87-8.54t-5.66-15.64a30.71,30.71,0,0,1,2.71-13.11,27.09,27.09,0,0,1,7.77-9.89,36.74,36.74,0,0,1,12.26-6.26,54.68,54.68,0,0,1,16-2.2,72.53,72.53,0,0,1,27.9,5.59Z"/><path class="cls-2" d="M724.56,786q0,19.79,18.6,19.79,10,0,15.05-8.12H787.8q-9,29.76-44.81,29.76a58.77,58.77,0,0,1-20.12-3.3,44.73,44.73,0,0,1-15.64-9.38,41.8,41.8,0,0,1-10.06-14.54,48.44,48.44,0,0,1-3.56-18.94A53.42,53.42,0,0,1,697,761.77a41,41,0,0,1,9.63-14.8,42.56,42.56,0,0,1,15.14-9.38,57.22,57.22,0,0,1,20-3.31,56,56,0,0,1,19.78,3.31,39.89,39.89,0,0,1,14.88,9.55,41.46,41.46,0,0,1,9.3,15.3A60.69,60.69,0,0,1,789,782.82V786Zm35.85-17.76A18.42,18.42,0,0,0,754.15,758a17.53,17.53,0,0,0-11.5-3.89q-7.1,0-11.58,3.72a16.85,16.85,0,0,0-5.67,10.48Z"/><path class="cls-2" d="M873.36,737.5h30.78v86.75H873.36v-9.64Q863.55,827,846.82,827a43.1,43.1,0,0,1-17.42-3.46,41.92,41.92,0,0,1-13.87-9.73,44.78,44.78,0,0,1-9.21-14.71,50.23,50.23,0,0,1-3.3-18.43A48.92,48.92,0,0,1,806.23,763a45.45,45.45,0,0,1,9-14.63,42.18,42.18,0,0,1,13.7-9.89,41.69,41.69,0,0,1,17.59-3.64q16.23,0,26.88,11.33Zm-38.55,43.12a20.18,20.18,0,0,0,5.67,14.2,18.38,18.38,0,0,0,6.25,4.23,20.09,20.09,0,0,0,7.86,1.52,19.66,19.66,0,0,0,7.7-1.52,18.62,18.62,0,0,0,6.26-4.23,22,22,0,0,0,4.22-6.25,18.29,18.29,0,0,0,1.61-7.61,18.88,18.88,0,0,0-1.61-7.7,21.75,21.75,0,0,0-4.22-6.34,18.74,18.74,0,0,0-6.26-4.22,19.67,19.67,0,0,0-7.7-1.53,20.1,20.1,0,0,0-7.86,1.53,18.5,18.5,0,0,0-6.25,4.22,20.8,20.8,0,0,0-4.15,6.17A18.63,18.63,0,0,0,834.81,780.62Z"/><path class="cls-3" d="M702.11,380.39A247.62,247.62,0,0,1,609.8,573.51V187.24A247.66,247.66,0,0,1,702.11,380.39Z"/></svg>